# xmcd CD database file
#
# Track frame offsets:
#	150
#	14117
#	28655
#	42479
#	58479
#	71143
#	85210
#	98566
#	111494
#	126153
#
# Disc length: 1873 seconds
#
# Revision: 1
# Processed by: cddbd v1.5.2PL0 Copyright (c) Steve Scherf et al.
# Submitted via: CDex 1.81
#
DISCID=95074f0a
DTITLE=Billie Holiday - Unknown CD for MusicBrainz and FreeDB
DYEAR=1900
DGENRE=Jazz
TTITLE0=The Man I Love
TTITLE1=Strange Fruit
TTITLE2=All Of Me
TTITLE3=I'll Be Seeing You
TTITLE4=No More
TTITLE5=What Is This Thing Called Love
TTITLE6=My Man
TTITLE7=Them There Eyes
TTITLE8=You Can't Lose A Broken Heart
TTITLE9=God Bless The Child
EXTD=
EXTT0=
EXTT1=
EXTT2=
EXTT3=
EXTT4=
EXTT5=
EXTT6=
EXTT7=
EXTT8=
EXTT9=
PLAYORDER=
